Coordinates
version=1
nRows=11
nColumns=40
inDegrees=yes

Units are S.I. units (second, meters, Newtons, ...)
If the header above contains a line with 'inDegrees', this indicates whether rotational values are in degrees (yes) or radians (no).

endheader
time	pelvis_tilt	pelvis_list	pelvis_rotation	pelvis_tx	pelvis_ty	pelvis_tz	hip_flexion_r	hip_adduction_r	hip_rotation_r	knee_angle_r	knee_angle_r_beta	ankle_angle_r	subtalar_angle_r	mtp_angle_r	hip_flexion_l	hip_adduction_l	hip_rotation_l	knee_angle_l	knee_angle_l_beta	ankle_angle_l	subtalar_angle_l	mtp_angle_l	lumbar_extension	lumbar_bending	lumbar_rotation	arm_flex_r	arm_add_r	arm_rot_r	elbow_flex_r	pro_sup_r	wrist_flex_r	wrist_dev_r	arm_flex_l	arm_add_l	arm_rot_l	elbow_flex_l	pro_sup_l	wrist_flex_l	wrist_dev_l
      1.27000000	     -2.28167595	     12.64268759	    -87.85405634	      0.22598934	      0.96594377	      1.48961982	     10.33952128	      4.91211258	     -5.74616825	      6.86274468	      0.11977749	      2.43829253	      0.00000000	      0.00000000	     36.12370948	     -2.11227591	     -1.74771304	     49.51907915	      0.86427097	      2.70891894	      0.00000000	      0.00000000	      5.25698332	      1.55698319	      2.35714994	      0.00000000	      0.00000000	      0.00000000	      0.00000000	      0.00000000	      0.00000000	      0.00000000	      0.00000000	      0.00000000	      0.00000000	      0.00000000	      0.00000000	      0.00000000	      0.00000000
      1.28000000	     -2.04324343	     12.83714236	    -88.10152213	      0.22476411	      0.96465500	      1.50941186	      8.54778063	      4.93170216	     -5.27840464	      5.49600046	      0.09592330	      2.66320758	      0.00000000	      0.00000000	     37.33862775	     -1.91428336	     -2.45620938	     45.88612618	      0.80086398	      3.18512101	      0.00000000	      0.00000000	      5.35405928	      1.17135869	      2.66904637	      0.00000000	      0.00000000	      0.00000000	      0.00000000	      0.00000000	      0.00000000	      0.00000000	      0.00000000	      0.00000000	      0.00000000	      0.00000000	      0.00000000	      0.00000000	      0.00000000
      1.29000000	     -1.78672255	     12.65625917	    -88.49131296	      0.22340802	      0.96323392	      1.52945392	      6.31584766	      4.96112598	     -4.45228720	      4.08585473	      0.07131162	      2.82783553	      0.00000000	      0.00000000	     37.95105638	     -1.84947359	     -3.43666549	     41.90327727	      0.73135016	      3.37028064	      0.00000000	      0.00000000	      4.99286485	      0.81554081	      3.06648454	      0.00000000	      0.00000000	      0.00000000	      0.00000000	      0.00000000	      0.00000000	      0.00000000	      0.00000000	      0.00000000	      0.00000000	      0.00000000	      0.00000000	      0.00000000	      0.00000000
      1.30000000	     -1.57442086	     12.67317149	    -88.86284225	      0.22213636	      0.96081534	      1.54934194	      4.45665635	      4.97231656	     -3.87404965	      2.98391411	      0.05207913	      3.15446762	      0.00000000	      0.00000000	     38.70247293	     -1.77780801	     -4.33137309	     37.74684938	      0.65880680	      3.58118428	      0.00000000	      0.00000000	      4.85945416	      0.50193284	      3.47168931	      0.00000000	      0.00000000	      0.00000000	      0.00000000	      0.00000000	      0.00000000	      0.00000000	      0.00000000	      0.00000000	      0.00000000	      0.00000000	      0.00000000	      0.00000000	      0.00000000
      1.31000000	     -1.42000184	     12.50417995	    -89.19436085	      0.22104165	      0.95800679	      1.56940854	      2.40413595	      5.01327724	     -3.30624441	      1.92903944	      0.03366809	      3.52235684	      0.00000000	      0.00000000	     39.15179319	     -1.72084795	     -5.17466957	     33.42524093	      0.58338051	      3.66292305	      0.00000000	      0.00000000	      4.52905832	      0.26401288	      3.79641158	      0.00000000	      0.00000000	      0.00000000	      0.00000000	      0.00000000	      0.00000000	      0.00000000	      0.00000000	      0.00000000	      0.00000000	      0.00000000	      0.00000000	      0.00000000	      0.00000000
      1.32000000	     -1.29751895	     12.47101338	    -89.45780666	      0.22012854	      0.95439841	      1.58943066	      0.60377164	      5.03649219	     -2.91426254	      1.09654212	      0.01913827	      4.04722841	      0.00000000	      0.00000000	     39.69606005	     -1.61309357	     -5.88513949	     29.05419440	      0.50709135	      3.75491696	      0.00000000	      0.00000000	      4.35730449	      0.04684759	      4.07125272	      0.00000000	      0.00000000	      0.00000000	      0.00000000	      0.00000000	      0.00000000	      0.00000000	      0.00000000	      0.00000000	      0.00000000	      0.00000000	      0.00000000	      0.00000000	      0.00000000
      1.33000000	     -1.27226287	     12.16630556	    -89.62762194	      0.21944526	      0.95063714	      1.60964078	     -1.47445819	      5.13627753	     -2.56959992	      0.33637057	      0.00587077	      4.50857695	      0.00000000	      0.00000000	     39.87321648	     -1.49138494	     -6.35285431	     24.66161089	      0.43042631	      3.80694223	      0.00000000	      0.00000000	      3.85476380	     -0.04270629	      4.17193657	      0.00000000	      0.00000000	      0.00000000	      0.00000000	      0.00000000	      0.00000000	      0.00000000	      0.00000000	      0.00000000	      0.00000000	      0.00000000	      0.00000000	      0.00000000	      0.00000000
      1.34000000	     -1.29940848	     11.95356526	    -89.73137362	      0.21900812	      0.94629727	      1.62995421	     -3.36176777	      5.25197071	     -2.39047037	     -0.21313954	     -0.00371999	      5.06709047	      0.00000000	      0.00000000	     40.11818618	     -1.31595215	     -6.45173253	     20.43861687	      0.35672116	      3.96091520	      0.00000000	      0.00000000	      3.49341830	     -0.07912286	      4.24442060	      0.00000000	      0.00000000	      0.00000000	      0.00000000	      0.00000000	      0.00000000	      0.00000000	      0.00000000	      0.00000000	      0.00000000	      0.00000000	      0.00000000	      0.00000000	      0.00000000
      1.35000000	     -1.42821593	     11.93038276	    -89.79606167	      0.21875567	      0.94134098	      1.65031563	     -4.92110127	      5.44237724	     -2.33491749	     -0.48596547	     -0.00848170	      5.69249455	      0.00000000	      0.00000000	     40.54661237	     -1.15696359	     -6.00854027	     16.51984778	      0.28832574	      4.31131379	      0.00000000	      0.00000000	      3.36392210	      0.00613934	      4.33978419	      0.00000000	      0.00000000	      0.00000000	      0.00000000	      0.00000000	      0.00000000	      0.00000000	      0.00000000	      0.00000000	      0.00000000	      0.00000000	      0.00000000	      0.00000000	      0.00000000
      1.36000000	     -1.48637008	     11.50057310	    -89.83841147	      0.21869006	      0.93676204	      1.67122400	     -6.94316793	      5.53733090	     -2.33264557	     -0.74028172	     -0.01292035	      6.22686824	      0.00000000	     -0.00000000	     40.42646094	     -0.92638525	     -5.38030810	     12.92042553	      0.22550397	      4.51716137	     -0.00000000	     -0.00000000	      2.80362999	      0.01562292	      4.28803178	     -0.00000000	      0.00000000	     -0.00000000	      0.00000000	      0.00000000	     -0.00000000	     -0.00000000	     -0.00000000	      0.00000000	     -0.00000000	      0.00000000	      0.00000000	      0.00000000	      0.00000000
      1.37000000	     -1.62158697	     11.29055457	    -89.86668567	      0.21871602	      0.93180914	      1.69225063	     -8.58642592	      5.68272913	     -2.42099367	     -0.68163166	     -0.01189672	      6.74658899	      0.00000000	      0.00000000	     40.53759843	     -0.76831540	     -4.27275061	      9.93778551	      0.17344708	      4.90792384	      0.00000000	      0.00000000	      2.53416739	      0.11123836	      4.28910962	      0.00000000	      0.00000000	      0.00000000	      0.00000000	      0.00000000	      0.00000000	      0.00000000	      0.00000000	      0.00000000	      0.00000000	      0.00000000	      0.00000000	      0.00000000	      0.00000000
